<?xml version="1.0" encoding="UTF-8" standalone="no"?>
<svg xmlns:xlink="http://www.w3.org/1999/xlink" height="173.75px" width="368.1px" xmlns="http://www.w3.org/2000/svg">
  <g transform="matrix(1.0, 0.0, 0.0, 1.0, 184.5, 1.0)">
    <use height="173.75" transform="matrix(1.0, 0.0, 0.0, 1.0, -184.5, -1.0)" width="368.1" xlink:href="#shape0"/>
  </g>
  <defs>
    <g id="shape0" transform="matrix(1.0, 0.0, 0.0, 1.0, 184.5, 1.0)">
      <path d="M-154.25 35.75 L-155.0 35.0 -154.0 35.0 -154.25 35.75 M154.25 35.0 L153.5 34.75 154.5 34.5 154.25 35.0 M165.5 66.5 Q180.25 69.75 174.5 44.0 189.5 86.25 179.75 92.25 161.5 83.0 142.25 36.5 L142.0 35.25 126.0 24.5 Q152.75 156.25 3.25 172.75 -151.25 166.0 -127.75 25.75 L-142.5 35.75 Q-149.45 56.45 -177.25 91.0 -180.5 93.75 -183.75 92.25 -187.1 86.65 -175.25 44.0 -180.75 70.0 -166.25 67.0 -137.75 46.0 -153.0 36.0 -141.25 31.7 -98.75 -0.5 -108.85 9.9 -127.5 43.75 -127.25 86.75 -115.0 104.25 -86.75 155.75 -9.5 161.0 83.25 148.25 110.75 101.5 125.0 87.75 126.25 43.0 126.15 34.35 98.25 -1.0 145.95 34.05 152.75 35.75 137.0 45.75 165.5 66.5" fill="#000000" fill-opacity="0.49803922" fill-rule="evenodd" stroke="none"/>
    </g>
  </defs>
</svg>
