<?xml version="1.0" encoding="UTF-8" standalone="no"?>
<svg xmlns:xlink="http://www.w3.org/1999/xlink" height="368.25px" width="274.8px" xmlns="http://www.w3.org/2000/svg">
  <g transform="matrix(1.0, 0.0, 0.0, 1.0, 144.4, 156.1)">
    <use height="368.25" transform="matrix(1.0, 0.0, 0.0, 1.0, -144.4, -156.1)" width="274.8" xlink:href="#shape0"/>
  </g>
  <defs>
    <g id="shape0" transform="matrix(1.0, 0.0, 0.0, 1.0, 144.4, 156.1)">
      <path d="M-66.25 -74.75 L-52.25 -103.0 Q-54.85 -114.95 -51.75 -127.0 L-49.75 -130.5 -46.3 -133.8 Q-43.1 -136.8 -39.0 -137.25 L-38.5 -139.0 -36.75 -141.25 -33.25 -142.25 -28.0 -147.0 -21.75 -149.75 Q-17.5 -150.25 -16.75 -149.0 7.5 -175.0 62.75 -105.75 96.25 -90.5 115.75 -66.75 142.25 -46.0 120.75 -11.75 L117.5 -10.75 116.5 -10.75 115.0 -12.25 113.0 -13.75 107.75 -21.75 Q138.5 81.75 75.25 144.0 40.75 175.75 -9.75 185.25 -63.5 190.25 -88.5 159.75 L-96.0 156.75 Q-108.7 191.05 -138.55 211.7 L-141.15 211.6 Q-144.35 208.8 -144.4 204.25 -144.65 156.0 -133.1 109.1 L-131.5 103.25 -131.25 102.65 Q-123.6 77.25 -116.65 59.25 -109.15 39.75 -102.5 19.9 -97.4 4.75 -92.6 -10.55 -88.65 -23.0 -83.65 -35.1 -75.9 -53.75 -67.75 -72.25 L-66.25 -74.75" fill="#2e47aa" fill-rule="evenodd" stroke="none"/>
      <path d="M-67.75 -72.25 L-66.75 -75.0 -66.25 -74.75 -67.75 -72.25" fill="#ffffff" fill-rule="evenodd" stroke="none"/>
    </g>
  </defs>
</svg>
