<?xml version="1.0" encoding="UTF-8" standalone="no"?>
<svg
   xmlns:dc="http://purl.org/dc/elements/1.1/"
   xmlns:cc="http://creativecommons.org/ns#"
   xmlns:rdf="http://www.w3.org/1999/02/22-rdf-syntax-ns#"
   xmlns:svg="http://www.w3.org/2000/svg"
   xmlns="http://www.w3.org/2000/svg"
   xmlns:xlink="http://www.w3.org/1999/xlink"
   xmlns:sodipodi="http://sodipodi.sourceforge.net/DTD/sodipodi-0.dtd"
   xmlns:inkscape="http://www.inkscape.org/namespaces/inkscape"
   height="368.25px"
   width="274.8px"
   version="1.1"
   id="svg13"
   sodipodi:docname="back-left.svg"
   inkscape:version="0.92.4 (5da689c313, 2019-01-14)"
   enable-background="new"
   inkscape:export-filename="E:\Users\Tumble\Documents\GitHub\clubpenguin-bctp\penguin\back-left.png"
   inkscape:export-xdpi="34.855759"
   inkscape:export-ydpi="34.855759">
  <metadata
     id="metadata17">
    <rdf:RDF>
      <cc:Work
         rdf:about="">
        <dc:format>image/svg+xml</dc:format>
        <dc:type
           rdf:resource="http://purl.org/dc/dcmitype/StillImage" />
        <dc:title />
      </cc:Work>
    </rdf:RDF>
  </metadata>
  <sodipodi:namedview
     pagecolor="#ffffff"
     bordercolor="#666666"
     borderopacity="1"
     objecttolerance="10"
     gridtolerance="10"
     guidetolerance="10"
     inkscape:pageopacity="0"
     inkscape:pageshadow="2"
     inkscape:window-width="1920"
     inkscape:window-height="1017"
     id="namedview15"
     showgrid="false"
     inkscape:zoom="1.2817379"
     inkscape:cx="-186.68217"
     inkscape:cy="207.24163"
     inkscape:window-x="-8"
     inkscape:window-y="-8"
     inkscape:window-maximized="1"
     inkscape:current-layer="g830" />
  <defs
     id="defs11">
    <g
       id="shape0"
       transform="matrix(1.0, 0.0, 0.0, 1.0, 144.4, 156.1)">
      <path
         d="M-66.25 -74.75 L-52.25 -103.0 Q-54.85 -114.95 -51.75 -127.0 L-49.75 -130.5 -46.3 -133.8 Q-43.1 -136.8 -39.0 -137.25 L-38.5 -139.0 -36.75 -141.25 -33.25 -142.25 -28.0 -147.0 -21.75 -149.75 Q-17.5 -150.25 -16.75 -149.0 7.5 -175.0 62.75 -105.75 96.25 -90.5 115.75 -66.75 142.25 -46.0 120.75 -11.75 L117.5 -10.75 116.5 -10.75 115.0 -12.25 113.0 -13.75 107.75 -21.75 Q138.5 81.75 75.25 144.0 40.75 175.75 -9.75 185.25 -63.5 190.25 -88.5 159.75 L-96.0 156.75 Q-108.7 191.05 -138.55 211.7 L-141.15 211.6 Q-144.35 208.8 -144.4 204.25 -144.65 156.0 -133.1 109.1 L-131.5 103.25 -131.25 102.65 Q-123.6 77.25 -116.65 59.25 -109.15 39.75 -102.5 19.9 -97.4 4.75 -92.6 -10.55 -88.65 -23.0 -83.65 -35.1 -75.9 -53.75 -67.75 -72.25 L-66.25 -74.75"
         fill="#2e47aa"
         fill-rule="evenodd"
         stroke="none"
         id="path6" />
      <path
         d="M-67.75 -72.25 L-66.75 -75.0 -66.25 -74.75 -67.75 -72.25"
         fill="#ffffff"
         fill-rule="evenodd"
         stroke="none"
         id="path8" />
    </g>
    <g
       transform="matrix(1.0, 0.0, 0.0, 1.0, 143.7, 141.2)"
       id="shape0-8">
      <path
         id="path832"
         stroke="none"
         fill-rule="evenodd"
         fill="#000000"
         d="M-49.75 -130.5 L-51.75 -127.0 -52.75 -126.5 Q-53.25 -123.5 -55.0 -122.5 L-54.75 -127.25 Q-53.75 -130.25 -49.75 -130.5" />
      <path
         id="path834"
         stroke="none"
         fill-rule="evenodd"
         fill="#e58508"
         d="M-49.75 -130.5 Q-53.75 -130.25 -54.75 -127.25 L-55.0 -122.5 Q-58.45 -114.1 -55.05 -105.85 L-53.0 -101.5 -66.25 -74.75 -66.75 -75.0 Q-77.45 -83.15 -83.0 -95.6 -91.3 -114.3 -77.25 -129.45 -61.6 -146.3 -38.5 -139.0 L-39.0 -137.25 Q-43.1 -136.8 -46.3 -133.8 L-49.75 -130.5" />
      <path
         id="path836"
         stroke="none"
         fill-rule="evenodd"
         fill="#ffffff"
         d="M-55.0 -122.5 Q-53.25 -123.5 -52.75 -126.5 L-51.75 -127.0 Q-54.85 -114.95 -52.25 -103.0 L-53.0 -101.5 -55.05 -105.85 Q-58.45 -114.1 -55.0 -122.5" />
      <path
         id="path838"
         stroke="none"
         fill-rule="evenodd"
         fill-opacity="0.49803922"
         fill="#000000"
         d="M92.5 -59.75 L89.0 -64.0 Q114.75 -54.5 118.5 -60.5 122.25 -58.25 115.0 -45.0 L117.5 -39.25 Q125.0 -31.75 130.25 -42.5 135.75 -27.0 119.0 -10.75 116.5 -10.0 114.0 -12.75 108.75 -15.25 101.5 -40.75 L92.5 -59.75 M24.0 175.8 Q8.95 182.25 -7.35 184.15 L-34.75 185.1 Q-57.75 184.55 -76.0 170.6 L-96.0 156.75 Q-118.35 200.05 -139.0 212.25 -146.3 205.9 -142.3 162.7 -144.9 201.35 -138.5 207.0 -139.25 205.5 -134.25 201.0 -101.35 168.2 -99.5 161.5 -83.0 130.0 -94.25 124.75 -73.0 98.35 -55.25 65.0 L-53.7 62.05 -59.5 75.4 Q-69.25 97.8 -76.2 121.0 L-76.6 122.5 Q-82.35 144.75 -76.75 151.5 L-76.0 152.55 Q-71.3 158.3 -64.5 161.25 -45.1 169.45 -23.95 171.3 0.8 172.7 24.0 164.65 41.9 158.6 60.0 146.25 127.75 95.0 113.25 -0.5 135.0 74.25 75.5 143.75 52.85 164.4 24.0 175.8" />
    </g>
    <filter
       inkscape:collect="always"
       style="color-interpolation-filters:sRGB"
       id="filter858">
      <feBlend
         inkscape:collect="always"
         mode="multiply"
         in2="BackgroundImage"
         id="feBlend860" />
    </filter>
  </defs>
  <g
     inkscape:groupmode="layer"
     id="layer1"
     inkscape:label="color">
    <g
       transform="translate(144.41254,156.55)"
       id="g4"
       inkscape:export-xdpi="17.459999"
       inkscape:export-ydpi="17.459999">
      <use
         height="368.25"
         transform="translate(-144.4,-156.1)"
         width="274.79999"
         xlink:href="#shape0"
         id="use2"
         x="0"
         y="0" />
    </g>
  </g>
  <g
     inkscape:groupmode="layer"
     id="layer2"
     inkscape:label="shading"
     style="filter:url(#filter858)">
    <g
       id="g830"
       transform="translate(145.16254,155.05)">
      <use
         id="use828"
         xlink:href="#shape0-8"
         width="275.29999"
         transform="translate(-143.7,-141.2)"
         height="353.45001"
         x="0"
         y="0"
         inkscape:export-xdpi="17.459999"
         inkscape:export-ydpi="17.459999" />
    </g>
  </g>
</svg>
