<?xml version="1.0" encoding="UTF-8" standalone="no"?>
<svg
   xmlns:dc="http://purl.org/dc/elements/1.1/"
   xmlns:cc="http://creativecommons.org/ns#"
   xmlns:rdf="http://www.w3.org/1999/02/22-rdf-syntax-ns#"
   xmlns:svg="http://www.w3.org/2000/svg"
   xmlns="http://www.w3.org/2000/svg"
   xmlns:xlink="http://www.w3.org/1999/xlink"
   xmlns:sodipodi="http://sodipodi.sourceforge.net/DTD/sodipodi-0.dtd"
   xmlns:inkscape="http://www.inkscape.org/namespaces/inkscape"
   height="330.55px"
   width="367.95px"
   version="1.1"
   id="svg11"
   sodipodi:docname="back.svg"
   inkscape:version="0.92.4 (5da689c313, 2019-01-14)"
   inkscape:export-filename="E:\Users\Tumble\Documents\GitHub\clubpenguin-bctp\penguin\back.png"
   inkscape:export-xdpi="34.849503"
   inkscape:export-ydpi="34.849503">
  <metadata
     id="metadata15">
    <rdf:RDF>
      <cc:Work
         rdf:about="">
        <dc:format>image/svg+xml</dc:format>
        <dc:type
           rdf:resource="http://purl.org/dc/dcmitype/StillImage" />
        <dc:title />
      </cc:Work>
    </rdf:RDF>
  </metadata>
  <sodipodi:namedview
     pagecolor="#ffffff"
     bordercolor="#666666"
     borderopacity="1"
     objecttolerance="10"
     gridtolerance="10"
     guidetolerance="10"
     inkscape:pageopacity="0"
     inkscape:pageshadow="2"
     inkscape:window-width="1920"
     inkscape:window-height="1017"
     id="namedview13"
     showgrid="false"
     inkscape:zoom="2.0193884"
     inkscape:cx="-16.356519"
     inkscape:cy="153.64958"
     inkscape:window-x="1912"
     inkscape:window-y="-8"
     inkscape:window-maximized="1"
     inkscape:current-layer="layer1" />
  <defs
     id="defs9">
    <g
       id="shape0"
       transform="matrix(1.0, 0.0, 0.0, 1.0, 184.45, 157.8)">
      <path
         d="M13.85 -153.9 Q28.0 -143.7 40.25 -131.35 65.0 -106.55 83.05 -76.5 92.45 -60.85 107.3 -49.75 116.45 -42.95 124.35 -34.8 L135.05 -23.55 Q148.9 -6.8 160.9 11.25 172.5 28.6 177.0 49.3 179.3 59.85 181.15 70.45 183.0 80.95 183.5 91.5 179.6 93.4 176.25 90.7 162.55 79.5 154.55 63.45 147.8 49.9 142.0 35.75 L125.75 24.5 Q130.25 44.5 130.1 65.05 129.9 87.65 120.5 108.1 113.5 123.2 101.4 134.35 72.55 160.75 33.55 168.45 22.6 170.7 11.25 171.8 -0.4 173.3 -12.05 172.45 -36.15 169.95 -59.1 162.8 -76.4 157.3 -91.25 146.8 -110.3 133.4 -120.15 112.35 -128.75 94.0 -130.25 73.85 -132.1 49.7 -128.25 25.75 L-142.75 36.0 Q-149.8 54.7 -160.0 71.65 -167.25 83.65 -178.55 91.2 -180.5 92.55 -183.0 92.75 -184.45 92.1 -184.45 90.6 -184.55 79.15 -181.5 68.0 L-169.75 24.5 Q-163.3 12.0 -154.9 0.65 -130.35 -32.5 -100.35 -61.3 -86.0 -75.1 -74.55 -91.25 -49.9 -126.1 -16.25 -151.9 -6.05 -159.7 6.3 -157.2 10.35 -156.45 13.85 -153.9"
         fill="#2e47aa"
         fill-rule="evenodd"
         stroke="none"
         id="path6" />
    </g>
    <g
       transform="matrix(1.0, 0.0, 0.0, 1.0, 184.5, 1.0)"
       id="shape0-2">
      <path
         id="path833"
         stroke="none"
         fill-rule="evenodd"
         fill-opacity="0.49803922"
         fill="#000000"
         d="M-154.25 35.75 L-155.0 35.0 -154.0 35.0 -154.25 35.75 M154.25 35.0 L153.5 34.75 154.5 34.5 154.25 35.0 M165.5 66.5 Q180.25 69.75 174.5 44.0 189.5 86.25 179.75 92.25 161.5 83.0 142.25 36.5 L142.0 35.25 126.0 24.5 Q152.75 156.25 3.25 172.75 -151.25 166.0 -127.75 25.75 L-142.5 35.75 Q-149.45 56.45 -177.25 91.0 -180.5 93.75 -183.75 92.25 -187.1 86.65 -175.25 44.0 -180.75 70.0 -166.25 67.0 -137.75 46.0 -153.0 36.0 -141.25 31.7 -98.75 -0.5 -108.85 9.9 -127.5 43.75 -127.25 86.75 -115.0 104.25 -86.75 155.75 -9.5 161.0 83.25 148.25 110.75 101.5 125.0 87.75 126.25 43.0 126.15 34.35 98.25 -1.0 145.95 34.05 152.75 35.75 137.0 45.75 165.5 66.5" />
    </g>
  </defs>
  <g
     inkscape:groupmode="layer"
     id="layer1"
     inkscape:label="color">
    <g
       transform="translate(184.45159,157.8)"
       id="g4"
       inkscape:export-xdpi="17.459999"
       inkscape:export-ydpi="17.459999">
      <use
         height="330.54999"
         transform="translate(-184.45,-157.8)"
         width="367.95001"
         xlink:href="#shape0"
         id="use2"
         x="0"
         y="0" />
    </g>
  </g>
  <g
     inkscape:groupmode="layer"
     id="layer2"
     inkscape:label="shading">
    <g
       id="g831"
       transform="translate(184.42371,157.80745)"
       inkscape:export-xdpi="17.459999"
       inkscape:export-ydpi="17.459999">
      <use
         id="use829"
         xlink:href="#shape0-2"
         width="368.10001"
         transform="translate(-184.5,-1)"
         height="173.75"
         x="0"
         y="0" />
    </g>
  </g>
</svg>
