<?xml version="1.0" encoding="UTF-8" standalone="no"?>
<svg xmlns:xlink="http://www.w3.org/1999/xlink" height="353.45px" width="275.3px" xmlns="http://www.w3.org/2000/svg">
  <g transform="matrix(1.0, 0.0, 0.0, 1.0, 143.7, 141.2)">
    <use height="353.45" transform="matrix(1.0, 0.0, 0.0, 1.0, -143.7, -141.2)" width="275.3" xlink:href="#shape0"/>
  </g>
  <defs>
    <g id="shape0" transform="matrix(1.0, 0.0, 0.0, 1.0, 143.7, 141.2)">
      <path d="M-49.75 -130.5 L-51.75 -127.0 -52.75 -126.5 Q-53.25 -123.5 -55.0 -122.5 L-54.75 -127.25 Q-53.75 -130.25 -49.75 -130.5" fill="#000000" fill-rule="evenodd" stroke="none"/>
      <path d="M-49.75 -130.5 Q-53.75 -130.25 -54.75 -127.25 L-55.0 -122.5 Q-58.45 -114.1 -55.05 -105.85 L-53.0 -101.5 -66.25 -74.75 -66.75 -75.0 Q-77.45 -83.15 -83.0 -95.6 -91.3 -114.3 -77.25 -129.45 -61.6 -146.3 -38.5 -139.0 L-39.0 -137.25 Q-43.1 -136.8 -46.3 -133.8 L-49.75 -130.5" fill="#e58508" fill-rule="evenodd" stroke="none"/>
      <path d="M-55.0 -122.5 Q-53.25 -123.5 -52.75 -126.5 L-51.75 -127.0 Q-54.85 -114.95 -52.25 -103.0 L-53.0 -101.5 -55.05 -105.85 Q-58.45 -114.1 -55.0 -122.5" fill="#ffffff" fill-rule="evenodd" stroke="none"/>
      <path d="M92.5 -59.75 L89.0 -64.0 Q114.75 -54.5 118.5 -60.5 122.25 -58.25 115.0 -45.0 L117.5 -39.25 Q125.0 -31.75 130.25 -42.5 135.75 -27.0 119.0 -10.75 116.5 -10.0 114.0 -12.75 108.75 -15.25 101.5 -40.75 L92.5 -59.75 M24.0 175.8 Q8.95 182.25 -7.35 184.15 L-34.75 185.1 Q-57.75 184.55 -76.0 170.6 L-96.0 156.75 Q-118.35 200.05 -139.0 212.25 -146.3 205.9 -142.3 162.7 -144.9 201.35 -138.5 207.0 -139.25 205.5 -134.25 201.0 -101.35 168.2 -99.5 161.5 -83.0 130.0 -94.25 124.75 -73.0 98.35 -55.25 65.0 L-53.7 62.05 -59.5 75.4 Q-69.25 97.8 -76.2 121.0 L-76.6 122.5 Q-82.35 144.75 -76.75 151.5 L-76.0 152.55 Q-71.3 158.3 -64.5 161.25 -45.1 169.45 -23.95 171.3 0.8 172.7 24.0 164.65 41.9 158.6 60.0 146.25 127.75 95.0 113.25 -0.5 135.0 74.25 75.5 143.75 52.85 164.4 24.0 175.8" fill="#000000" fill-opacity="0.49803922" fill-rule="evenodd" stroke="none"/>
    </g>
  </defs>
</svg>
