<?xml version="1.0" encoding="UTF-8" standalone="no"?>
<svg xmlns:xlink="http://www.w3.org/1999/xlink" height="330.55px" width="367.95px" xmlns="http://www.w3.org/2000/svg">
  <g transform="matrix(1.0, 0.0, 0.0, 1.0, 184.45, 157.8)">
    <use height="330.55" transform="matrix(1.0, 0.0, 0.0, 1.0, -184.45, -157.8)" width="367.95" xlink:href="#shape0"/>
  </g>
  <defs>
    <g id="shape0" transform="matrix(1.0, 0.0, 0.0, 1.0, 184.45, 157.8)">
      <path d="M13.85 -153.9 Q28.0 -143.7 40.25 -131.35 65.0 -106.55 83.05 -76.5 92.45 -60.85 107.3 -49.75 116.45 -42.95 124.35 -34.8 L135.05 -23.55 Q148.9 -6.8 160.9 11.25 172.5 28.6 177.0 49.3 179.3 59.85 181.15 70.45 183.0 80.95 183.5 91.5 179.6 93.4 176.25 90.7 162.55 79.5 154.55 63.45 147.8 49.9 142.0 35.75 L125.75 24.5 Q130.25 44.5 130.1 65.05 129.9 87.65 120.5 108.1 113.5 123.2 101.4 134.35 72.55 160.75 33.55 168.45 22.6 170.7 11.25 171.8 -0.4 173.3 -12.05 172.45 -36.15 169.95 -59.1 162.8 -76.4 157.3 -91.25 146.8 -110.3 133.4 -120.15 112.35 -128.75 94.0 -130.25 73.85 -132.1 49.7 -128.25 25.75 L-142.75 36.0 Q-149.8 54.7 -160.0 71.65 -167.25 83.65 -178.55 91.2 -180.5 92.55 -183.0 92.75 -184.45 92.1 -184.45 90.6 -184.55 79.15 -181.5 68.0 L-169.75 24.5 Q-163.3 12.0 -154.9 0.65 -130.35 -32.5 -100.35 -61.3 -86.0 -75.1 -74.55 -91.25 -49.9 -126.1 -16.25 -151.9 -6.05 -159.7 6.3 -157.2 10.35 -156.45 13.85 -153.9" fill="#2e47aa" fill-rule="evenodd" stroke="none"/>
    </g>
  </defs>
</svg>
