<?xml version="1.0" encoding="UTF-8" standalone="no"?>
<svg
   xmlns:dc="http://purl.org/dc/elements/1.1/"
   xmlns:cc="http://creativecommons.org/ns#"
   xmlns:rdf="http://www.w3.org/1999/02/22-rdf-syntax-ns#"
   xmlns:svg="http://www.w3.org/2000/svg"
   xmlns="http://www.w3.org/2000/svg"
   xmlns:xlink="http://www.w3.org/1999/xlink"
   xmlns:sodipodi="http://sodipodi.sourceforge.net/DTD/sodipodi-0.dtd"
   xmlns:inkscape="http://www.inkscape.org/namespaces/inkscape"
   height="364.9px"
   width="271.95px"
   version="1.1"
   id="svg13"
   sodipodi:docname="front-left.svg"
   inkscape:version="0.92.4 (5da689c313, 2019-01-14)"
   inkscape:export-filename="E:\Users\Tumble\Documents\GitHub\clubpenguin-bctp\penguin\front-left.png"
   inkscape:export-xdpi="33.886513"
   inkscape:export-ydpi="33.886513">
  <metadata
     id="metadata17">
    <rdf:RDF>
      <cc:Work
         rdf:about="">
        <dc:format>image/svg+xml</dc:format>
        <dc:type
           rdf:resource="http://purl.org/dc/dcmitype/StillImage" />
        <dc:title />
      </cc:Work>
    </rdf:RDF>
  </metadata>
  <sodipodi:namedview
     pagecolor="#ffffff"
     bordercolor="#666666"
     borderopacity="1"
     objecttolerance="10"
     gridtolerance="10"
     guidetolerance="10"
     inkscape:pageopacity="0"
     inkscape:pageshadow="2"
     inkscape:window-width="1920"
     inkscape:window-height="1017"
     id="namedview15"
     showgrid="false"
     inkscape:zoom="1.4142136"
     inkscape:cx="-112.19301"
     inkscape:cy="84.282789"
     inkscape:window-x="1912"
     inkscape:window-y="-8"
     inkscape:window-maximized="1"
     inkscape:current-layer="layer3"
     showguides="true"
     inkscape:guide-bbox="true" />
  <defs
     id="defs11">
    <g
       id="shape0"
       transform="matrix(1.0, 0.0, 0.0, 1.0, 126.75, 148.8)">
      <path
         d="M-76.0 -100.25 L-67.0 -104.75 Q-25.5 -162.5 7.75 -144.5 41.5 -129.0 104.0 19.25 L118.5 52.75 125.5 73.75 125.75 74.25 125.75 74.5 131.25 91.0 Q153.5 100.75 140.25 206.0 137.5 223.5 129.5 210.75 L121.0 195.25 112.5 176.25 101.5 148.5 84.5 160.25 70.0 165.5 62.25 166.5 Q47.3 168.4 32.4 165.65 21.85 163.85 11.5 161.25 L-13.5 163.75 -46.25 155.25 -56.25 148.75 Q-64.85 140.35 -72.5 131.3 L-83.8 117.0 Q-88.85 110.6 -92.85 103.3 -96.5 96.65 -98.9 89.5 L-99.65 87.25 -102.5 78.25 -104.2 69.05 Q-105.15 63.55 -104.4 58.15 L-103.4 51.6 -101.55 39.0 -101.5 38.5 -103.25 28.75 -103.25 -3.75 -101.75 -19.0 -99.0 -35.75 -109.0 -21.5 -118.25 -10.5 -118.75 -10.25 -119.75 -9.5 Q-125.5 -5.0 -126.25 -10.0 L-126.5 -10.5 Q-128.5 -57.75 -115.75 -65.25 L-112.0 -71.0 -111.25 -71.75 -110.5 -73.25 -98.75 -84.5 -84.25 -95.0 -76.0 -100.25 M-10.0 -58.25 L-9.75 -57.5 -9.0 -57.25 -10.0 -58.25"
         fill="#2e47aa"
         fill-rule="evenodd"
         stroke="none"
         id="path6" />
      <path
         d="M-10.0 -58.25 L-9.0 -57.25 -9.75 -57.5 -10.0 -58.25"
         fill="#243773"
         fill-rule="evenodd"
         stroke="none"
         id="path8" />
    </g>
    <g
       transform="matrix(1.0, 0.0, 0.0, 1.0, 104.75, 7.0)"
       id="shape0-2">
      <path
         id="path833"
         stroke="none"
         fill-rule="evenodd"
         fill="#ffffff"
         d="M20.75 136.0 Q26.5 163.75 11.5 161.25 L-13.5 163.75 -46.25 155.25 -56.25 148.75 Q-74.25 131.1 -88.2 110.75 -98.25 96.1 -102.0 78.75 L-102.5 78.25 -104.0 71.25 -104.75 70.75 -104.25 70.25 -104.5 65.25 -101.5 38.5 Q-101.55 35.45 -99.85 32.9 L-98.75 31.5 -98.75 29.5 Q-90.45 13.65 -84.0 -3.25 -70.5 10.75 -51.55 6.35 -34.8 2.55 -20.5 -7.0 -13.9 51.1 -2.25 88.5 L10.5 109.5 20.75 136.0" />
    </g>
    <g
       transform="matrix(1.0, 0.0, 0.0, 1.0, 125.65, 92.2)"
       id="shape0-6">
      <path
         id="path854"
         stroke="none"
         fill-rule="evenodd"
         fill="#e58508"
         d="M-17.75 -47.0 Q-9.0 -34.15 -10.2 -19.05 -10.9 -9.85 -20.5 -7.0 -34.8 2.55 -51.55 6.35 -70.5 10.75 -84.0 -3.25 -90.0 -9.75 -90.3 -18.8 -90.85 -34.75 -81.5 -48.0 -71.55 -62.1 -57.75 -72.25 L-56.75 -69.75 Q-55.5 -63.75 -44.25 -61.0 -36.0 -45.25 -17.75 -47.0 M-102.0 78.75 Q-98.25 96.1 -88.2 110.75 -74.25 131.1 -56.25 148.75 -62.4 153.4 -69.3 156.5 -80.75 161.55 -91.15 154.45 -106.0 144.4 -116.5 129.8 -128.05 113.9 -124.95 94.55 -121.75 74.5 -104.5 65.25 L-104.25 70.25 -104.75 70.75 -104.0 71.25 -102.5 78.25 -102.0 78.75 M-46.25 155.25 L-13.5 163.75 11.5 161.25 Q21.85 163.85 32.4 165.65 47.3 168.4 62.25 166.5 58.75 190.5 37.0 218.25 7.75 239.25 -33.75 209.0 -52.5 198.5 -55.5 172.5 L-54.5 168.0 -46.25 155.25" />
      <path
         id="path856"
         stroke="none"
         fill-rule="evenodd"
         fill="#ffffff"
         d="M-57.75 -72.25 L-57.5 -72.5 -57.75 -82.25 Q-58.0 -84.5 -53.25 -92.0 L-52.8 -92.15 Q-46.45 -91.3 -41.9 -86.4 L-39.85 -83.85 -39.0 -82.25 -36.25 -80.25 -35.75 -80.0 -35.5 -80.0 Q-20.4 -71.8 -10.0 -58.25 L-9.75 -57.5 Q-11.75 -49.25 -17.75 -47.0 -36.0 -45.25 -44.25 -61.0 -55.5 -63.75 -56.75 -69.75 L-57.75 -72.25 M-49.15 -70.6 L-48.75 -71.5 Q-50.35 -80.6 -56.5 -77.0 L-57.5 -72.5 Q-52.95 -64.1 -49.15 -70.6 M-40.75 -58.5 Q-26.75 -50.0 -34.0 -63.75 -43.25 -68.5 -40.75 -58.5" />
      <path
         id="path858"
         stroke="none"
         fill-rule="evenodd"
         fill="#000000"
         d="M-40.75 -58.5 Q-43.25 -68.5 -34.0 -63.75 -26.75 -50.0 -40.75 -58.5 M-49.15 -70.6 Q-52.95 -64.1 -57.5 -72.5 L-56.5 -77.0 Q-50.35 -80.6 -48.75 -71.5 L-49.15 -70.6" />
      <path
         id="path860"
         stroke="none"
         fill-rule="evenodd"
         fill-opacity="0.49803922"
         fill="#000000"
         d="M-99.5 66.0 L-99.25 69.25 -98.5 70.0 -99.5 66.0 M-115.5 -65.5 L-113.85 -64.35 Q-107.7 -60.5 -100.7 -62.5 L-88.25 -65.75 -89.85 -61.45 Q-103.5 -23.15 -92.25 16.0 -103.8 35.5 -99.75 57.0 -86.1 19.65 -89.85 -19.1 -87.75 -12.7 -84.15 -7.15 -75.5 6.25 -60.4 4.8 -32.2 2.9 -10.5 -15.75 -12.5 -8.45 -16.5 -2.0 -24.8 11.55 -34.3 24.6 -44.25 38.4 -53.5 52.7 -61.2 64.65 -73.05 72.4 -86.5 81.25 -98.75 70.5 L-97.0 77.35 Q-90.55 101.2 -74.7 120.0 -70.25 125.3 -64.65 129.45 -37.25 149.65 -2.6 146.75 L13.05 146.35 Q24.25 146.15 20.75 135.5 51.25 144.3 81.5 134.75 L51.25 48.5 Q56.95 59.25 63.4 69.6 67.65 76.5 71.45 83.65 84.1 107.3 105.5 121.75 L95.5 124.0 Q110.4 169.55 133.25 211.75 L140.55 201.5 137.75 215.25 Q133.65 213.85 131.2 210.4 111.3 182.3 101.5 148.5 84.7 163.85 62.85 166.45 60.9 170.55 59.9 175.05 57.45 186.15 52.0 196.2 47.8 204.0 43.1 211.35 35.1 223.8 20.8 226.95 L11.3 226.55 Q-6.7 222.05 -23.7 214.25 -38.3 207.55 -47.45 194.2 -60.7 174.75 -46.25 154.75 L-55.75 148.75 -58.65 151.05 Q-67.35 157.6 -78.25 158.45 -81.55 158.9 -84.4 157.55 -114.85 143.35 -124.1 110.55 -116.3 123.85 -108.85 137.55 -103.2 147.9 -96.25 140.5 L-88.75 144.0 Q-103.15 125.6 -106.5 102.4 -107.75 93.55 -105.35 85.2 -104.35 81.65 -104.8 77.95 -105.9 68.85 -104.15 60.25 -102.85 53.75 -103.0 47.5 -104.0 5.7 -98.5 -35.75 -109.4 -20.7 -122.25 -7.25 L-123.9 -7.3 Q-124.8 -7.4 -124.9 -8.45 -126.45 -27.7 -124.75 -47.0 -124.9 -43.65 -121.95 -42.25 -117.85 -40.2 -113.75 -42.5 -117.95 -53.75 -115.5 -65.5 M-51.5 177.0 L-46.0 185.75 Q-49.05 194.15 -40.5 200.7 -25.15 212.5 -6.65 219.0 10.3 224.9 26.9 219.0 36.3 215.8 42.85 208.5 51.2 199.25 51.15 187.55 51.15 186.75 50.75 186.0 28.55 180.3 6.2 186.0 -2.05 188.05 -10.5 187.75 -26.4 187.1 -41.15 181.55 -46.5 179.55 -51.5 177.0" />
    </g>
  </defs>
  <g
     inkscape:groupmode="layer"
     id="layer1"
     inkscape:label="color">
    <g
       transform="translate(126.75,148.8)"
       id="g4"
       inkscape:export-xdpi="17.459999"
       inkscape:export-ydpi="17.459999">
      <use
         height="364.89999"
         transform="translate(-126.75,-148.8)"
         width="271.95001"
         xlink:href="#shape0"
         id="use2"
         x="0"
         y="0" />
    </g>
  </g>
  <g
     inkscape:groupmode="layer"
     id="layer2"
     inkscape:label="chest">
    <g
       id="g831"
       transform="translate(126.25,148.3)"
       inkscape:export-xdpi="17.459999"
       inkscape:export-ydpi="17.459999">
      <use
         id="use829"
         xlink:href="#shape0-2"
         width="127.1"
         transform="translate(-104.75,-7)"
         height="170.75"
         x="0"
         y="0" />
    </g>
    <g
       id="g852"
       transform="translate(858.40901,370.17076)" />
  </g>
  <g
     inkscape:groupmode="layer"
     id="layer3"
     inkscape:label="shading">
    <use
       id="use850"
       xlink:href="#shape0-6"
       width="266.20001"
       transform="translate(1.1000039,56.6)"
       height="319.5"
       x="0"
       y="0"
       inkscape:export-xdpi="17.459999"
       inkscape:export-ydpi="17.459999" />
  </g>
</svg>
