<?xml version="1.0" encoding="UTF-8" standalone="no"?>
<svg xmlns:xlink="http://www.w3.org/1999/xlink" height="170.75px" width="127.1px" xmlns="http://www.w3.org/2000/svg">
  <g transform="matrix(1.0, 0.0, 0.0, 1.0, 104.75, 7.0)">
    <use height="170.75" transform="matrix(1.0, 0.0, 0.0, 1.0, -104.75, -7.0)" width="127.1" xlink:href="#shape0"/>
  </g>
  <defs>
    <g id="shape0" transform="matrix(1.0, 0.0, 0.0, 1.0, 104.75, 7.0)">
      <path d="M20.75 136.0 Q26.5 163.75 11.5 161.25 L-13.5 163.75 -46.25 155.25 -56.25 148.75 Q-74.25 131.1 -88.2 110.75 -98.25 96.1 -102.0 78.75 L-102.5 78.25 -104.0 71.25 -104.75 70.75 -104.25 70.25 -104.5 65.25 -101.5 38.5 Q-101.55 35.45 -99.85 32.9 L-98.75 31.5 -98.75 29.5 Q-90.45 13.65 -84.0 -3.25 -70.5 10.75 -51.55 6.35 -34.8 2.55 -20.5 -7.0 -13.9 51.1 -2.25 88.5 L10.5 109.5 20.75 136.0" fill="#ffffff" fill-rule="evenodd" stroke="none"/>
    </g>
  </defs>
</svg>
