<?xml version="1.0" encoding="UTF-8" standalone="no"?>
<svg xmlns:xlink="http://www.w3.org/1999/xlink" height="364.9px" width="271.95px" xmlns="http://www.w3.org/2000/svg">
  <g transform="matrix(1.0, 0.0, 0.0, 1.0, 126.75, 148.8)">
    <use height="364.9" transform="matrix(1.0, 0.0, 0.0, 1.0, -126.75, -148.8)" width="271.95" xlink:href="#shape0"/>
  </g>
  <defs>
    <g id="shape0" transform="matrix(1.0, 0.0, 0.0, 1.0, 126.75, 148.8)">
      <path d="M-76.0 -100.25 L-67.0 -104.75 Q-25.5 -162.5 7.75 -144.5 41.5 -129.0 104.0 19.25 L118.5 52.75 125.5 73.75 125.75 74.25 125.75 74.5 131.25 91.0 Q153.5 100.75 140.25 206.0 137.5 223.5 129.5 210.75 L121.0 195.25 112.5 176.25 101.5 148.5 84.5 160.25 70.0 165.5 62.25 166.5 Q47.3 168.4 32.4 165.65 21.85 163.85 11.5 161.25 L-13.5 163.75 -46.25 155.25 -56.25 148.75 Q-64.85 140.35 -72.5 131.3 L-83.8 117.0 Q-88.85 110.6 -92.85 103.3 -96.5 96.65 -98.9 89.5 L-99.65 87.25 -102.5 78.25 -104.2 69.05 Q-105.15 63.55 -104.4 58.15 L-103.4 51.6 -101.55 39.0 -101.5 38.5 -103.25 28.75 -103.25 -3.75 -101.75 -19.0 -99.0 -35.75 -109.0 -21.5 -118.25 -10.5 -118.75 -10.25 -119.75 -9.5 Q-125.5 -5.0 -126.25 -10.0 L-126.5 -10.5 Q-128.5 -57.75 -115.75 -65.25 L-112.0 -71.0 -111.25 -71.75 -110.5 -73.25 -98.75 -84.5 -84.25 -95.0 -76.0 -100.25 M-10.0 -58.25 L-9.75 -57.5 -9.0 -57.25 -10.0 -58.25" fill="#2e47aa" fill-rule="evenodd" stroke="none"/>
      <path d="M-10.0 -58.25 L-9.0 -57.25 -9.75 -57.5 -10.0 -58.25" fill="#243773" fill-rule="evenodd" stroke="none"/>
    </g>
  </defs>
</svg>
