<?xml version="1.0" encoding="UTF-8" standalone="no"?>
<svg
   xmlns:dc="http://purl.org/dc/elements/1.1/"
   xmlns:cc="http://creativecommons.org/ns#"
   xmlns:rdf="http://www.w3.org/1999/02/22-rdf-syntax-ns#"
   xmlns:svg="http://www.w3.org/2000/svg"
   xmlns="http://www.w3.org/2000/svg"
   xmlns:xlink="http://www.w3.org/1999/xlink"
   xmlns:sodipodi="http://sodipodi.sourceforge.net/DTD/sodipodi-0.dtd"
   xmlns:inkscape="http://www.inkscape.org/namespaces/inkscape"
   height="311.95px"
   width="369.8px"
   version="1.1"
   id="svg13"
   sodipodi:docname="forward.svg"
   inkscape:version="0.92.4 (5da689c313, 2019-01-14)"
   inkscape:export-filename="E:\Users\Tumble\Documents\GitHub\clubpenguin-bctp\penguin\forward.png"
   inkscape:export-xdpi="17.459999"
   inkscape:export-ydpi="17.459999">
  <metadata
     id="metadata17">
    <rdf:RDF>
      <cc:Work
         rdf:about="">
        <dc:format>image/svg+xml</dc:format>
        <dc:type
           rdf:resource="http://purl.org/dc/dcmitype/StillImage" />
        <dc:title></dc:title>
      </cc:Work>
    </rdf:RDF>
  </metadata>
  <sodipodi:namedview
     pagecolor="#ffffff"
     bordercolor="#666666"
     borderopacity="1"
     objecttolerance="10"
     gridtolerance="10"
     guidetolerance="10"
     inkscape:pageopacity="0"
     inkscape:pageshadow="2"
     inkscape:window-width="1920"
     inkscape:window-height="1017"
     id="namedview15"
     showgrid="false"
     inkscape:zoom="1.4142136"
     inkscape:cx="44.835308"
     inkscape:cy="145.57921"
     inkscape:window-x="-8"
     inkscape:window-y="-8"
     inkscape:window-maximized="1"
     inkscape:current-layer="layer3" />
  <defs
     id="defs11">
    <g
       id="shape0"
       transform="matrix(1.0, 0.0, 0.0, 1.0, 185.15, 148.0)">
      <path
         d="M86.5 -69.25 Q125.45 -44.65 154.2 -10.15 161.8 -1.05 165.65 9.4 172.1 26.85 176.1 45.1 180.9 67.0 184.45 89.25 185.1 93.2 183.6 96.8 L183.3 97.25 182.9 97.6 Q179.9 97.75 177.95 95.1 156.3 65.35 141.5 31.2 140.95 30.0 139.55 29.15 L135.25 26.5 Q130.75 23.55 126.5 21.0 131.55 41.2 128.35 61.8 125.7 79.0 115.9 93.5 107.45 106.0 95.5 115.25 90.3 120.05 84.2 123.15 L82.75 123.75 Q5.2 202.4 -78.25 127.25 L-88.25 122.25 -96.5 116.25 Q-112.05 105.5 -120.9 88.6 -129.15 72.85 -130.2 55.15 -131.25 38.2 -128.25 21.5 -136.05 26.2 -140.8 33.3 -160.65 62.85 -178.1 94.05 -181.45 100.1 -184.45 96.0 -185.3 94.8 -185.15 92.95 -183.3 66.8 -175.7 41.6 -170.75 25.1 -163.15 9.45 L-160.85 5.3 Q-132.35 -40.6 -87.0 -69.25 -67.55 -99.15 -42.2 -123.8 -26.55 -138.9 -6.25 -146.45 L-1.5 -148.0 Q27.55 -139.15 48.95 -117.3 70.3 -95.35 86.5 -69.25 M-1.35 -70.35 L-1.0 -70.25 -1.35 -70.4 -1.35 -70.35"
         fill="#2e47aa"
         fill-rule="evenodd"
         stroke="none"
         id="path6" />
      <path
         d="M-1.35 -70.35 L-1.35 -70.4 -1.0 -70.25 -1.35 -70.35"
         fill="#243773"
         fill-rule="evenodd"
         stroke="none"
         id="path8" />
    </g>
    <g
       transform="matrix(1.0, 0.0, 0.0, 1.0, 185.85, 70.45)"
       id="shape0-4">
      <path
         id="path828"
         stroke="none"
         fill-rule="evenodd"
         fill="#ffffff"
         d="M-25.75 -48.5 Q-27.5 -49.0 -30.5 -57.25 L-30.5 -64.5 -29.25 -66.5 Q-17.6 -72.4 -4.55 -69.5 L-3.25 -69.25 -3.0 -69.0 Q10.65 -71.05 24.45 -68.5 28.05 -67.7 30.0 -64.5 29.5 -56.0 28.5 -55.0 L25.25 -49.25 Q18.5 -39.5 -0.5 -47.0 -17.5 -39.25 -25.75 -48.5 M12.0 -47.0 Q22.5 -52.5 14.0 -57.0 -1.5 -55.0 12.0 -47.0 M-11.75 -47.0 Q-0.5 -56.25 -15.5 -56.75 -22.5 -48.75 -11.75 -47.0" />
      <path
         id="path830"
         stroke="none"
         fill-rule="evenodd"
         fill="#e58508"
         d="M25.25 -49.25 Q42.9 -39.25 39.75 -18.65 38.4 -9.85 36.0 -1.25 31.25 17.25 14.05 23.85 -4.45 31.1 -21.25 20.1 -31.5 13.4 -35.5 1.75 L-38.5 -8.25 Q-48.0 -33.0 -25.75 -48.5 -17.5 -39.25 -0.5 -47.0 18.5 -39.5 25.25 -49.25 M-88.25 122.25 L-78.25 127.25 Q-64.15 142.4 -45.55 151.55 -28.2 160.1 -9.25 163.25 -8.5 175.6 -14.1 186.75 -16.05 190.55 -19.35 193.3 -34.3 205.9 -55.3 202.85 -75.65 200.25 -93.05 189.6 -111.45 178.45 -110.8 156.7 -110.1 134.55 -96.5 116.25 L-88.25 122.25 M28.95 159.35 Q43.9 154.55 57.1 146.35 71.75 137.15 82.75 123.75 L84.2 123.15 Q90.3 120.05 95.5 115.25 111.0 141.75 110.5 154.0 111.0 193.0 55.25 201.0 30.5 204.25 16.75 193.0 11.5 190.0 8.25 164.75 18.8 162.6 28.95 159.35" />
      <path
         id="path832"
         stroke="none"
         fill-rule="evenodd"
         fill="#000000"
         d="M-11.75 -47.0 Q-22.5 -48.75 -15.5 -56.75 -0.5 -56.25 -11.75 -47.0 M12.0 -47.0 Q-1.5 -55.0 14.0 -57.0 22.5 -52.5 12.0 -47.0" />
      <path
         id="path834"
         stroke="none"
         fill-rule="evenodd"
         fill-opacity="0.49803922"
         fill="#000000"
         d="M-101.5 0.0 L-102.6 1.1 -122.75 36.25 -121.0 47.25 Q-108.15 85.35 -83.25 97.75 -86.0 98.75 -85.0 100.75 -71.55 130.55 -37.25 145.5 2.1 158.15 38.25 145.0 70.5 131.25 86.75 101.5 90.0 97.5 87.25 91.5 103.25 80.25 109.0 70.0 L118.25 52.0 122.5 35.0 100.5 -2.5 Q112.0 5.8 137.0 22.25 138.75 24.0 143.5 24.25 155.25 32.25 157.75 27.0 155.25 34.0 147.5 36.0 L148.0 36.75 147.5 39.25 Q156.25 54.5 159.75 54.5 L164.25 62.75 Q168.5 68.0 172.5 69.75 179.0 66.5 173.25 36.0 186.6 89.75 184.0 96.5 170.5 95.5 142.25 30.75 L126.5 20.75 Q143.0 70.5 95.5 115.0 L99.75 122.25 104.0 131.75 102.0 132.25 Q96.75 136.75 92.5 138.0 L92.25 142.0 Q62.05 180.35 21.75 184.5 22.5 187.0 36.5 189.25 L36.75 196.25 Q56.5 194.25 66.25 194.5 98.5 188.5 109.5 163.5 111.0 165.25 105.25 176.25 L99.0 183.75 Q83.75 201.75 33.25 200.75 8.5 198.5 8.5 164.75 L5.5 165.0 -9.0 163.25 Q-11.0 207.5 -43.0 202.5 -93.5 201.5 -108.25 173.25 L-110.75 167.25 -111.0 164.0 Q-106.5 187.5 -37.5 197.25 L-37.25 189.75 Q-25.5 188.5 -20.75 184.25 -21.75 182.25 -33.5 180.75 -69.5 171.95 -89.75 141.0 -102.75 131.75 -105.0 132.75 L-101.75 124.5 -96.25 115.75 Q-119.5 98.75 -126.0 77.25 L-128.25 69.0 -130.5 44.25 -129.5 29.5 -127.75 21.75 -128.5 21.5 -143.25 31.25 -159.75 64.75 -175.25 91.0 Q-181.5 103.0 -185.75 93.75 -186.95 87.6 -174.75 37.0 -179.5 66.75 -173.75 70.0 -168.25 69.5 -148.5 40.5 L-148.25 39.75 -149.25 38.75 -148.5 36.75 Q-156.25 34.25 -159.0 27.5 -148.25 34.0 -100.25 -3.0 L-101.5 0.0 M150.75 39.25 L152.75 44.0 149.75 38.5 150.75 39.25 M3.55 24.55 Q35.5 22.65 40.0 -22.0 40.0 81.75 1.75 84.5 -39.5 88.25 -40.25 -21.75 -36.25 25.75 3.55 24.55" />
    </g>
    <g
       transform="matrix(1.0, 0.0, 0.0, 1.0, 87.8, 1.25)"
       id="shape0-6">
      <path
         id="path856"
         stroke="none"
         fill-rule="evenodd"
         fill="#ffffff"
         d="M70.0 65.75 Q83.7 78.75 88.15 97.05 91.65 111.65 82.75 123.75 71.75 137.15 57.1 146.35 43.9 154.55 28.95 159.35 18.8 162.6 8.25 164.75 L4.75 165.0 -9.25 163.25 Q-28.2 160.1 -45.55 151.55 -64.15 142.4 -78.25 127.25 -93.0 107.5 -85.0 99.25 -58.25 71.0 -35.5 1.75 -31.5 13.4 -21.25 20.1 -4.45 31.1 14.05 23.85 31.25 17.25 36.0 -1.25 L47.95 28.5 Q54.55 45.35 64.95 60.05 67.2 63.2 70.0 65.75" />
    </g>
  </defs>
  <g
     inkscape:groupmode="layer"
     id="layer1"
     inkscape:label="color">
    <g
       transform="translate(185.34289,148.20572)"
       id="g4">
      <use
         height="311.95001"
         transform="translate(-185.15,-148)"
         width="369.79999"
         xlink:href="#shape0"
         id="use2"
         x="0"
         y="0" />
    </g>
  </g>
  <g
     inkscape:groupmode="layer"
     id="layer2"
     inkscape:label="chest">
    <g
       id="g854"
       transform="translate(184.84289,147.95572)">
      <use
         id="use852"
         xlink:href="#shape0-6"
         width="176.95"
         transform="translate(-87.8,-1.25)"
         height="166.25"
         x="0"
         y="0" />
    </g>
  </g>
  <g
     inkscape:groupmode="layer"
     id="layer3"
     inkscape:label="shading">
    <g
       id="g826"
       transform="translate(185.34289,148.45572)">
      <use
         id="use824"
         xlink:href="#shape0-4"
         width="370.25"
         transform="translate(-185.85,-70.45)"
         height="273.89999"
         x="0"
         y="0" />
    </g>
  </g>
</svg>
