<?xml version="1.0" encoding="UTF-8" standalone="no"?>
<svg xmlns:xlink="http://www.w3.org/1999/xlink" height="319.5px" width="266.2px" xmlns="http://www.w3.org/2000/svg">
  <g transform="matrix(1.0, 0.0, 0.0, 1.0, 125.65, 92.2)">
    <use height="319.5" transform="matrix(1.0, 0.0, 0.0, 1.0, -125.65, -92.2)" width="266.2" xlink:href="#shape0"/>
  </g>
  <defs>
    <g id="shape0" transform="matrix(1.0, 0.0, 0.0, 1.0, 125.65, 92.2)">
      <path d="M-17.75 -47.0 Q-9.0 -34.15 -10.2 -19.05 -10.9 -9.85 -20.5 -7.0 -34.8 2.55 -51.55 6.35 -70.5 10.75 -84.0 -3.25 -90.0 -9.75 -90.3 -18.8 -90.85 -34.75 -81.5 -48.0 -71.55 -62.1 -57.75 -72.25 L-56.75 -69.75 Q-55.5 -63.75 -44.25 -61.0 -36.0 -45.25 -17.75 -47.0 M-102.0 78.75 Q-98.25 96.1 -88.2 110.75 -74.25 131.1 -56.25 148.75 -62.4 153.4 -69.3 156.5 -80.75 161.55 -91.15 154.45 -106.0 144.4 -116.5 129.8 -128.05 113.9 -124.95 94.55 -121.75 74.5 -104.5 65.25 L-104.25 70.25 -104.75 70.75 -104.0 71.25 -102.5 78.25 -102.0 78.75 M-46.25 155.25 L-13.5 163.75 11.5 161.25 Q21.85 163.85 32.4 165.65 47.3 168.4 62.25 166.5 58.75 190.5 37.0 218.25 7.75 239.25 -33.75 209.0 -52.5 198.5 -55.5 172.5 L-54.5 168.0 -46.25 155.25" fill="#e58508" fill-rule="evenodd" stroke="none"/>
      <path d="M-57.75 -72.25 L-57.5 -72.5 -57.75 -82.25 Q-58.0 -84.5 -53.25 -92.0 L-52.8 -92.15 Q-46.45 -91.3 -41.9 -86.4 L-39.85 -83.85 -39.0 -82.25 -36.25 -80.25 -35.75 -80.0 -35.5 -80.0 Q-20.4 -71.8 -10.0 -58.25 L-9.75 -57.5 Q-11.75 -49.25 -17.75 -47.0 -36.0 -45.25 -44.25 -61.0 -55.5 -63.75 -56.75 -69.75 L-57.75 -72.25 M-49.15 -70.6 L-48.75 -71.5 Q-50.35 -80.6 -56.5 -77.0 L-57.5 -72.5 Q-52.95 -64.1 -49.15 -70.6 M-40.75 -58.5 Q-26.75 -50.0 -34.0 -63.75 -43.25 -68.5 -40.75 -58.5" fill="#ffffff" fill-rule="evenodd" stroke="none"/>
      <path d="M-40.75 -58.5 Q-43.25 -68.5 -34.0 -63.75 -26.75 -50.0 -40.75 -58.5 M-49.15 -70.6 Q-52.95 -64.1 -57.5 -72.5 L-56.5 -77.0 Q-50.35 -80.6 -48.75 -71.5 L-49.15 -70.6" fill="#000000" fill-rule="evenodd" stroke="none"/>
      <path d="M-99.5 66.0 L-99.25 69.25 -98.5 70.0 -99.5 66.0 M-115.5 -65.5 L-113.85 -64.35 Q-107.7 -60.5 -100.7 -62.5 L-88.25 -65.75 -89.85 -61.45 Q-103.5 -23.15 -92.25 16.0 -103.8 35.5 -99.75 57.0 -86.1 19.65 -89.85 -19.1 -87.75 -12.7 -84.15 -7.15 -75.5 6.25 -60.4 4.8 -32.2 2.9 -10.5 -15.75 -12.5 -8.45 -16.5 -2.0 -24.8 11.55 -34.3 24.6 -44.25 38.4 -53.5 52.7 -61.2 64.65 -73.05 72.4 -86.5 81.25 -98.75 70.5 L-97.0 77.35 Q-90.55 101.2 -74.7 120.0 -70.25 125.3 -64.65 129.45 -37.25 149.65 -2.6 146.75 L13.05 146.35 Q24.25 146.15 20.75 135.5 51.25 144.3 81.5 134.75 L51.25 48.5 Q56.95 59.25 63.4 69.6 67.65 76.5 71.45 83.65 84.1 107.3 105.5 121.75 L95.5 124.0 Q110.4 169.55 133.25 211.75 L140.55 201.5 137.75 215.25 Q133.65 213.85 131.2 210.4 111.3 182.3 101.5 148.5 84.7 163.85 62.85 166.45 60.9 170.55 59.9 175.05 57.45 186.15 52.0 196.2 47.8 204.0 43.1 211.35 35.1 223.8 20.8 226.95 L11.3 226.55 Q-6.7 222.05 -23.7 214.25 -38.3 207.55 -47.45 194.2 -60.7 174.75 -46.25 154.75 L-55.75 148.75 -58.65 151.05 Q-67.35 157.6 -78.25 158.45 -81.55 158.9 -84.4 157.55 -114.85 143.35 -124.1 110.55 -116.3 123.85 -108.85 137.55 -103.2 147.9 -96.25 140.5 L-88.75 144.0 Q-103.15 125.6 -106.5 102.4 -107.75 93.55 -105.35 85.2 -104.35 81.65 -104.8 77.95 -105.9 68.85 -104.15 60.25 -102.85 53.75 -103.0 47.5 -104.0 5.7 -98.5 -35.75 -109.4 -20.7 -122.25 -7.25 L-123.9 -7.3 Q-124.8 -7.4 -124.9 -8.45 -126.45 -27.7 -124.75 -47.0 -124.9 -43.65 -121.95 -42.25 -117.85 -40.2 -113.75 -42.5 -117.95 -53.75 -115.5 -65.5 M-51.5 177.0 L-46.0 185.75 Q-49.05 194.15 -40.5 200.7 -25.15 212.5 -6.65 219.0 10.3 224.9 26.9 219.0 36.3 215.8 42.85 208.5 51.2 199.25 51.15 187.55 51.15 186.75 50.75 186.0 28.55 180.3 6.2 186.0 -2.05 188.05 -10.5 187.75 -26.4 187.1 -41.15 181.55 -46.5 179.55 -51.5 177.0" fill="#000000" fill-opacity="0.49803922" fill-rule="evenodd" stroke="none"/>
    </g>
  </defs>
</svg>
